<svg width="31" height="32" viewBox="0 0 31 32" fill="none" xmlns="http://www.w3.org/2000/svg">
<path d="M15.2718 -0.00537109C6.86954 -0.00537109 0.0336914 7.17226 0.0336914 15.9946C0.0336914 24.8164 6.86954 31.9947 15.2718 31.9947C23.6734 31.9947 30.5099 24.8164 30.5099 15.9946C30.5099 7.17226 23.6747 -0.00537109 15.2718 -0.00537109ZM22.0695 12.3327C22.0764 12.4912 22.0801 12.651 22.0801 12.8109C22.0801 17.6774 18.5532 23.287 12.1003 23.287C10.1196 23.287 8.27574 22.6793 6.72406 21.6339C6.99843 21.6681 7.27771 21.6854 7.56067 21.6854C9.20441 21.6854 10.7162 21.0964 11.9168 20.1091C10.3823 20.0795 9.08656 19.0147 8.64033 17.5511C8.85394 17.5935 9.0743 17.6174 9.29955 17.6174C9.61933 17.6174 9.92992 17.5737 10.2239 17.4892C8.61947 17.1515 7.41091 15.6634 7.41091 13.8781C7.41091 13.8627 7.41091 13.8466 7.41152 13.8317C7.88414 14.1069 8.4249 14.2732 8.9994 14.2919C8.05907 13.6326 7.43975 12.5047 7.43975 11.2274C7.43975 10.552 7.61223 9.91906 7.91422 9.37512C9.64327 11.6037 12.2286 13.0693 15.1429 13.224C15.0827 12.954 15.0527 12.6736 15.0527 12.3842C15.0527 10.3509 16.6227 8.70163 18.5593 8.70163C19.5684 8.70163 20.4787 9.1489 21.1194 9.86427C21.9191 9.6993 22.6681 9.39381 23.3476 8.97039C23.0836 9.83077 22.5293 10.552 21.8032 11.0082C22.5133 10.9193 23.1909 10.7221 23.8177 10.4288C23.35 11.1661 22.7553 11.8151 22.0695 12.3327Z" fill="#EEE0CB"/>
</svg>
